<svg width="85" height="81" viewBox="0 0 85 81" fill="none" xmlns="http://www.w3.org/2000/svg">
<path id="Union" fill-rule="evenodd" clip-rule="evenodd" d="M30.1423 0H58.3162V5.41806H57.2326V1.08361H31.2259V5.41806H30.1423V0ZM67.256 5.41808H20.9316V16.5251H14.7008V25.4649H8.19919V26.5485L75.654 26.5485V43.8862H58.858V30.883H29.8714V43.8862H13.0754V44.9699H29.8714V52.8261H13.0754V53.9097H29.8714L29.8714 66.6421H13.0754V26.8194H11.9918V79.9163H0.884766V81H84.5938V79.9163H76.7376V26.5485L79.4467 26.5485V25.4649H73.4868V16.5251H67.256V5.41808ZM13.0754 67.7257V79.9163H29.8714L29.8714 67.7257H13.0754ZM58.858 44.9699H75.654V52.8261H58.858V53.9097H75.654V66.9131H58.858V44.9699ZM58.858 67.9967H75.654V79.9163H58.858V67.9967ZM57.7744 31.9666V43.8862H52.8981V43.2828L52.8843 43.2227C52.5963 41.9748 51.8289 40.1165 50.4486 38.5323C49.0592 36.9375 47.0318 35.6047 44.2518 35.4888C41.4473 35.372 39.4012 36.6716 38.0062 38.3062C36.6227 39.9274 35.8581 41.8975 35.5724 43.231L35.5603 43.2871V43.8862H30.955V31.9666H57.7744ZM57.7744 44.9699H52.8981V79.9163H57.7744V44.9699ZM30.955 44.9699V79.9163H35.5603V44.9699H30.955ZM51.8145 79.9163H36.644V43.403C36.9094 42.2084 37.6052 40.4455 38.8305 39.0096C40.0633 37.565 41.8099 36.4716 44.2067 36.5715C46.628 36.6724 48.3933 37.8228 49.6316 39.2441C50.8571 40.6506 51.5498 42.3068 51.8145 43.4075V79.9163ZM66.1724 16.5251V6.50169H22.0152V16.5251H66.1724ZM72.4032 17.6087V25.4649H15.7844V17.6087H72.4032ZM35.8313 12.4615H36.8133V11.3779H35.8313V12.4615ZM38.7774 12.4615H40.7414V11.3779H38.7774V12.4615ZM42.7055 12.4615H44.6695V11.3779H42.7055V12.4615ZM46.6336 12.4615H48.5976V11.3779H46.6336V12.4615ZM50.5617 12.4615H51.5437V11.3779H50.5617V12.4615ZM24.4533 35.4883C24.4533 37.1341 23.1191 38.4682 21.4734 38.4682C19.8276 38.4682 18.4934 37.1341 18.4934 35.4883C18.4934 33.8425 19.8276 32.5084 21.4734 32.5084C23.1191 32.5084 24.4533 33.8425 24.4533 35.4883ZM66.9851 38.4682C68.6309 38.4682 69.965 37.1341 69.965 35.4883C69.965 33.8425 68.6309 32.5084 66.9851 32.5084C65.3393 32.5084 64.0051 33.8425 64.0051 35.4883C64.0051 37.1341 65.3393 38.4682 66.9851 38.4682Z" fill="#894ED2"/>
</svg>
